<?xml version="1.0" standalone="no"?>
<!DOCTYPE svg PUBLIC "-//W3C//DTD SVG 20010904//EN"
 "http://www.w3.org/TR/2001/REC-SVG-20010904/DTD/svg10.dtd">
<svg version="1.0" xmlns="http://www.w3.org/2000/svg"
 width="1171.000000pt" height="912.000000pt" viewBox="0 0 1171.000000 912.000000"
 preserveAspectRatio="xMidYMid meet">

<g transform="translate(0.000000,912.000000) scale(0.100000,-0.100000)"
fill="#000000" stroke="none">
<path d="M5610 9054 c-30 -8 -79 -31 -109 -52 -29 -20 -80 -54 -114 -74 -67
-41 -138 -106 -167 -154 -26 -40 -54 -225 -42 -279 6 -30 13 -41 32 -45 21 -5
26 -14 32 -50 3 -25 7 -63 7 -85 2 -66 18 -86 89 -106 l62 -17 0 24 c0 32 -43
59 -97 59 -33 0 -42 3 -39 15 3 8 7 38 11 65 11 83 76 164 100 126 3 -6 35 0
75 14 38 13 82 25 97 26 30 3 205 -76 258 -117 18 -13 35 -24 39 -24 18 0 38
-33 33 -55 -2 -14 -1 -25 4 -25 14 0 5 -50 -11 -60 -10 -7 -11 -10 -2 -10 6 0
12 -5 12 -11 0 -5 -4 -7 -10 -4 -12 7 -11 11 -15 -85 -17 -386 -16 -379 -96
-480 -54 -69 -151 -219 -153 -237 -1 -11 8 -16 31 -17 17 0 29 1 27 3 -2 2 10
12 26 22 17 11 30 23 30 29 0 12 4 17 51 70 54 60 121 159 114 170 -4 6 1 7
11 3 13 -5 16 -3 11 10 -4 11 -2 14 8 11 7 -3 16 3 20 15 3 11 14 20 23 19 27
0 133 32 172 52 64 32 67 45 18 72 -66 36 -100 100 -106 198 -4 71 -2 85 22
135 19 38 41 65 71 85 62 42 72 80 56 207 -14 117 -49 226 -101 314 -48 81
-164 193 -210 202 -56 12 -183 7 -240 -8 -66 -18 -73 -18 -65 -5 9 15 79 49
122 59 l38 9 -35 0 c-19 1 -60 -6 -90 -14z"/>
<path d="M6124 8929 c92 -102 175 -322 176 -464 1 -87 11 -114 66 -171 29 -29
55 -54 57 -54 3 0 8 32 11 70 7 70 0 145 -32 310 -38 201 -171 360 -302 360
-20 0 -17 -5 24 -51z"/>
<path d="M5621 8279 c-86 -15 -106 -45 -50 -75 28 -14 43 -14 130 -3 55 7 99
16 99 20 0 4 -10 19 -22 33 -27 31 -79 39 -157 25z"/>
<path d="M6269 8225 c-34 -18 -49 -61 -49 -139 0 -112 50 -169 126 -144 72 24
106 131 67 213 -9 19 -21 35 -26 35 -6 0 -2 9 8 20 18 20 18 21 -5 12 -16 -6
-32 -4 -49 5 -32 16 -39 16 -72 -2z m72 -22 c36 -21 54 -65 53 -126 -1 -71
-55 -133 -106 -119 -26 6 -57 75 -58 125 0 62 39 137 73 137 5 0 22 -8 38 -17z"/>
<path d="M5323 8125 c-30 -21 -39 -69 -19 -100 19 -30 60 -42 81 -25 22 18 20
102 -3 123 -23 21 -32 21 -59 2z m17 -35 c0 -5 -5 -10 -11 -10 -5 0 -7 5 -4
10 3 6 8 10 11 10 2 0 4 -4 4 -10z"/>
<path d="M5634 8132 c-17 -11 -34 -48 -34 -72 0 -12 13 -35 29 -51 51 -50 151
-36 151 23 0 21 -33 74 -60 95 -17 14 -69 17 -86 5z m16 -42 c0 -5 -4 -10 -10
-10 -5 0 -10 5 -10 10 0 6 5 10 10 10 6 0 10 -4 10 -10z"/>
<path d="M5497 8013 c-8 -15 -18 -43 -22 -61 -4 -18 -18 -40 -31 -49 -33 -21
-19 -36 56 -57 48 -14 56 -14 69 -1 14 13 12 24 -12 100 -16 46 -32 87 -37 90
-5 3 -16 -7 -23 -22z"/>
<path d="M5505 7750 c-84 -5 -88 -6 -65 -19 44 -26 190 -19 190 9 0 13 -30 15
-125 10z"/>
<path d="M5970 7544 c-30 -8 -56 -19 -58 -24 -2 -6 -14 -10 -26 -10 -13 0 -35
-10 -49 -22 -51 -45 -82 -68 -94 -68 -25 0 -12 -30 35 -77 44 -46 141 -125
183 -149 24 -14 39 -30 19 -20 -8 4 -4 -2 10 -14 14 -12 19 -19 12 -15 -11 6
-11 3 -1 -12 10 -17 7 -27 -16 -66 -15 -26 -34 -51 -43 -57 -34 -19 1 -9 54
16 30 14 89 52 132 83 42 31 104 75 137 96 59 39 60 39 31 45 -16 3 -32 14
-37 25 -4 11 -8 16 -8 11 -1 -5 -8 -3 -16 4 -8 6 -19 9 -26 5 -6 -4 -15 -1
-20 6 -7 12 -9 12 -9 0 0 -11 -3 -11 -15 -1 -8 7 -22 10 -30 6 -9 -3 -13 -2
-10 4 3 6 -1 13 -9 16 -11 4 -14 17 -12 45 2 21 1 37 -4 34 -10 -6 -22 38 -25
90 l-2 40 -39 -3 c-37 -3 -38 -2 -19 12 24 18 24 18 -45 0z"/>
<path d="M5693 7149 c-17 -17 -16 -74 2 -109 20 -39 63 -70 94 -69 24 2 24 2
3 6 -39 8 -76 66 -82 128 -4 45 -7 54 -17 44z"/>
<path d="M7127 5846 c-4 -10 -7 -30 -7 -45 0 -44 -31 -213 -45 -248 -8 -17
-31 -44 -53 -58 -34 -23 -41 -33 -47 -73 -3 -26 -20 -87 -37 -137 -31 -90 -31
-90 -24 -244 l7 -154 -77 6 c-42 4 -156 7 -253 8 -131 1 -167 3 -141 11 187
51 235 71 237 100 1 12 6 24 11 27 12 8 42 71 42 88 0 7 7 13 15 13 8 0 21 15
28 33 8 17 26 46 40 63 15 17 28 45 29 63 1 17 5 31 9 31 8 0 21 34 24 60 1 8
5 31 10 50 4 19 9 55 10 80 2 25 4 47 5 50 1 3 1 17 0 32 -1 28 15 68 29 68 5
0 21 -12 36 -27 25 -26 26 -31 20 -90 -7 -67 -3 -73 31 -45 90 73 32 165 -131
208 -69 19 -219 18 -286 -2 -101 -30 -153 -87 -129 -143 11 -27 90 -91 111
-91 4 0 11 30 14 66 5 43 11 61 16 53 7 -11 9 -10 9 4 0 9 4 17 9 17 5 0 11 9
14 19 8 31 117 55 133 30 5 -8 9 -8 14 1 11 18 61 4 54 -15 -4 -8 -1 -15 5
-15 6 0 11 -8 11 -17 0 -14 -4 -12 -16 8 -15 23 -19 24 -50 15 -19 -6 -34 -17
-34 -23 0 -7 -5 -12 -11 -10 -6 1 -13 -8 -15 -20 -6 -36 -46 -95 -60 -89 -8 3
-11 0 -7 -11 5 -12 1 -14 -15 -8 -16 5 -22 2 -22 -9 0 -9 -5 -16 -11 -16 -5 0
-8 -4 -4 -9 7 -12 -26 -82 -36 -76 -4 3 -9 -2 -13 -10 -3 -8 -21 -22 -40 -31
-21 -11 -32 -22 -29 -30 6 -16 -39 -36 -79 -36 -16 0 -28 -3 -28 -8 0 -8 -3
-8 -145 -14 -49 -3 -91 -5 -92 -6 -8 -7 -30 -5 -45 2 -11 5 -26 5 -37 -1 -10
-6 -21 -8 -25 -4 -3 3 -25 7 -48 9 -44 3 -62 7 -88 17 -8 3 -30 7 -48 10 -32
4 -33 3 -26 -25 5 -25 3 -29 -12 -26 -19 3 -20 0 -23 -49 -2 -27 -3 -27 -11
-5 -7 17 -18 22 -47 23 l-38 1 45 11 45 11 -60 8 c-90 12 -89 16 4 17 l83 1
-7 27 c-3 15 -16 47 -28 72 l-22 46 -89 0 c-95 0 -99 -2 -111 -57 -5 -26 -9
-28 -58 -28 -37 0 -48 -3 -37 -10 13 -8 13 -10 -2 -11 -10 -1 -22 -3 -28 -4
-5 -1 -17 -3 -24 -4 -10 -1 -16 -16 -18 -48 -3 -42 -5 -47 -30 -50 -16 -2 -28
1 -28 7 0 6 -4 9 -9 5 -5 -3 -12 -1 -16 4 -3 6 -13 7 -22 4 -10 -4 -14 -2 -11
8 6 19 -37 56 -75 63 -62 11 -296 13 -300 2 -2 -6 -53 -11 -133 -12 -129 -1
-204 -17 -204 -44 0 -6 -5 -8 -12 -4 -7 4 -8 3 -4 -5 5 -8 13 -7 29 4 12 8 26
15 32 15 5 0 2 -5 -7 -11 -10 -5 -18 -16 -18 -24 0 -7 -11 -26 -24 -42 -28
-34 -69 -113 -62 -120 10 -10 42 17 61 54 19 35 111 104 140 103 5 -1 1 -6
-10 -13 -57 -34 -134 -131 -111 -140 21 -8 126 44 126 63 0 9 7 25 15 36 18
23 19 14 3 -21 -19 -41 0 -47 70 -23 34 11 66 17 70 13 4 -4 2 -10 -4 -12 -26
-9 -104 -63 -104 -72 0 -18 158 -21 292 -6 47 6 66 3 102 -14 33 -17 85 -25
230 -38 102 -10 186 -21 186 -25 0 -4 -85 -8 -190 -8 -127 0 -190 4 -190 11 0
5 -3 8 -7 6 -5 -3 -69 -8 -144 -12 -76 -4 -175 -10 -220 -14 -63 -6 -88 -5
-99 5 -12 10 -20 10 -40 -1 -35 -20 -112 -18 -157 3 -21 9 -39 20 -41 25 -6
12 -152 7 -247 -9 -49 -8 -155 -19 -235 -24 -80 -5 -179 -14 -220 -19 -41 -6
-291 -14 -555 -19 -476 -7 -478 -7 -230 -13 138 -3 511 -3 830 0 794 9 2623 6
2995 -5 l305 -8 -215 -13 c-341 -19 -888 -43 -998 -43 -76 0 -104 -4 -116 -15
-21 -21 -56 -121 -63 -179 -6 -44 -4 -49 11 -43 10 4 29 7 43 7 15 0 38 13 58
33 28 28 41 34 74 33 23 -1 41 2 41 6 0 4 31 5 69 4 37 -2 74 0 82 4 7 5 22 4
32 -2 15 -8 18 -7 12 3 -6 9 -3 10 11 5 10 -5 26 -9 34 -10 8 0 18 -5 22 -11
4 -6 8 -2 8 9 0 15 3 16 15 6 12 -10 16 -10 20 2 6 14 105 16 280 3 50 -4 111
-7 137 -8 25 -1 44 -5 42 -9 -3 -4 1 -5 9 -2 22 8 33 -17 13 -28 -9 -5 -14
-14 -11 -19 4 -5 11 -7 16 -4 5 4 9 1 9 -4 0 -6 8 -12 18 -13 9 0 -3 -4 -28
-9 -27 -4 1 -6 72 -3 116 5 117 5 122 -18 3 -13 10 -115 16 -227 8 -144 8
-207 1 -214 -8 -8 -11 -6 -11 5 0 8 -12 20 -27 26 -37 15 -163 52 -174 52 -5
0 -9 -233 -9 -551 l0 -551 248 4 c277 3 295 8 334 78 26 47 22 157 -8 197 -41
56 -75 64 -311 74 -120 6 -218 11 -219 12 -1 1 4 49 11 107 8 71 20 122 38
158 13 29 35 89 48 133 l23 79 225 -1 c275 0 338 12 438 88 74 57 149 233 138
324 -3 31 -2 37 4 19 6 -18 10 3 17 80 4 58 9 110 10 115 1 6 2 18 3 28 1 14
11 17 59 17 74 1 135 13 167 34 21 14 23 19 13 36 -7 10 -15 17 -18 15 -3 -2
-11 4 -17 13 -8 14 -6 17 13 17 12 0 20 -3 18 -7 -3 -4 2 -5 11 -2 8 4 15 11
14 18 -3 24 1 37 11 31 17 -10 11 28 -10 62 -31 52 -65 67 -154 73 l-81 5 0
30 c1 54 27 440 31 453 2 7 -1 10 -6 7 -6 -4 -9 14 -9 47 l2 53 7 -40 c11 -64
11 -8 -1 85 -18 147 -73 236 -181 291 -74 38 -138 49 -314 56 -156 5 -171 5
-177 -11z m-287 -214 c0 -4 -9 -13 -20 -20 -16 -10 -20 -10 -18 0 5 21 38 39
38 20z m-7 -42 c-3 -11 -7 -20 -9 -20 -2 0 -4 9 -4 20 0 11 4 20 9 20 5 0 7
-9 4 -20z m-293 -280 c0 -5 -4 -10 -10 -10 -5 0 -10 5 -10 10 0 6 5 10 10 10
6 0 10 -4 10 -10z m-915 -40 c3 -5 1 -10 -4 -10 -6 0 -11 5 -11 10 0 6 2 10 4
10 3 0 8 -4 11 -10z m2162 -47 c-3 -10 -5 -2 -5 17 0 19 2 27 5 18 2 -10 2
-26 0 -35z m-2817 -13 c0 -5 -10 -10 -22 -11 -41 -1 41 -32 102 -38 42 -5 56
-10 58 -24 3 -15 -2 -17 -40 -11 -24 3 -67 17 -97 30 -29 13 -71 24 -92 24
-22 0 -39 5 -39 11 0 6 -8 8 -17 5 -37 -11 -98 -18 -91 -12 8 9 149 34 201 35
20 1 37 -3 37 -9z m2807 -107 c-3 -10 -5 -4 -5 12 0 17 2 24 5 18 2 -7 2 -21
0 -30z m-484 -540 c-7 -2 -21 -2 -30 0 -10 3 -4 5 12 5 17 0 24 -2 18 -5z
m-270 -10 c-13 -2 -33 -2 -45 0 -13 2 -3 4 22 4 25 0 35 -2 23 -4z m684 -285
c-3 -8 -6 -5 -6 6 -1 11 2 17 5 13 3 -3 4 -12 1 -19z"/>
<path d="M4359 5742 c15 -28 30 -37 43 -24 23 23 122 -22 161 -75 19 -24 18
-26 -4 -86 -12 -34 -25 -64 -28 -67 -4 -3 -15 -21 -25 -41 -22 -42 -90 -118
-127 -141 -14 -9 -51 -24 -81 -32 -56 -17 -75 -17 -383 1 -151 9 -265 8 -369
-2 -88 -8 -86 -4 -86 -146 l0 -96 128 -6 c70 -4 243 -7 385 -7 252 0 259 0
305 24 84 43 242 192 320 304 13 17 46 56 74 86 l50 54 40 -14 c22 -8 51 -14
64 -14 125 0 -285 281 -434 298 -42 5 -44 4 -33 -16z"/>
<path d="M2665 5336 c-59 -15 -104 -37 -126 -62 -24 -27 -91 -165 -85 -172 4
-3 48 2 99 12 77 14 101 15 140 5 84 -21 67 -38 -43 -45 -82 -5 -149 -37 -170
-81 -19 -42 -52 -53 -159 -54 l-86 -2 70 -8 c84 -10 435 0 435 12 0 5 10 9 23
9 32 0 47 18 47 57 l0 34 -27 -25 c-15 -14 -30 -23 -35 -20 -16 10 -7 35 27
73 l35 38 0 120 0 119 -47 2 c-27 0 -70 -5 -98 -12z"/>
<path d="M2390 5289 c-44 -18 -90 -59 -111 -102 -12 -23 -37 -57 -55 -75 -19
-18 -34 -37 -34 -42 0 -14 22 -12 45 4 11 7 23 13 27 12 3 0 10 3 15 8 5 6 2
6 -7 1 -13 -8 -13 -7 -1 8 7 9 19 17 25 17 6 0 4 -5 -4 -10 -11 -7 -11 -10 -2
-10 7 0 10 -5 6 -11 -4 -7 -3 -10 2 -8 5 2 36 15 69 28 59 24 60 24 61 65 0
23 11 60 23 84 l21 42 -27 -1 c-16 0 -39 -5 -53 -10z"/>
<path d="M4808 5263 c7 -3 16 -2 19 1 4 3 -2 6 -13 5 -11 0 -14 -3 -6 -6z"/>
<path d="M5380 5250 c0 -5 5 -10 11 -10 5 0 7 5 4 10 -3 6 -8 10 -11 10 -2 0
-4 -4 -4 -10z"/>
<path d="M2212 4990 c-10 -17 -10 -20 3 -20 8 0 15 9 15 20 0 11 -1 20 -3 20
-1 0 -8 -9 -15 -20z"/>
<path d="M2458 4583 c12 -2 30 -2 40 0 9 3 -1 5 -23 4 -22 0 -30 -2 -17 -4z"/>
<path d="M4095 4433 c-629 -51 -858 -272 -860 -828 0 -180 13 -336 26 -295 4
14 7 18 8 9 1 -11 12 -16 38 -17 21 -1 51 -11 68 -24 30 -22 62 -60 56 -67 -1
-2 3 -7 10 -12 7 -4 14 -15 15 -25 2 -9 7 -20 12 -23 5 -3 13 -17 17 -31 4
-14 13 -38 20 -55 21 -47 52 -154 65 -220 6 -33 15 -73 20 -90 7 -26 18 -77
36 -170 22 -121 31 -204 43 -410 6 -114 13 -162 29 -201 11 -28 23 -78 27
-110 3 -33 8 -77 11 -99 l5 -40 -83 -12 c-46 -6 -96 -17 -113 -23 -28 -11 -29
-12 -11 -25 13 -10 25 -11 45 -4 36 14 95 3 159 -29 76 -38 86 -58 78 -156 -8
-109 -9 -116 -31 -154 -22 -37 -65 -67 -110 -76 -26 -6 -37 0 -80 39 -84 78
-127 84 -199 30 -25 -20 -46 -39 -46 -43 0 -4 19 -15 41 -26 53 -24 145 -109
135 -124 -12 -19 -33 -14 -68 17 -40 34 -130 81 -157 81 -34 0 -33 -18 1 -36
41 -21 138 -113 138 -131 0 -30 -31 -24 -77 17 -59 52 -113 80 -152 80 -43 0
-47 -17 -9 -36 40 -20 148 -123 148 -142 0 -32 -32 -22 -86 27 -71 65 -106 83
-152 79 l-37 -4 28 -12 c44 -19 85 -53 122 -101 39 -50 42 -59 20 -67 -10 -4
-35 12 -70 45 -62 59 -116 85 -153 76 -14 -3 -43 -21 -66 -40 -23 -18 -71 -47
-108 -64 -36 -17 -73 -42 -82 -55 l-15 -24 67 -8 c100 -11 745 4 917 21 83 8
174 15 204 15 l54 0 -41 -30 c-67 -48 -58 -57 66 -66 131 -9 955 26 971 41 12
13 6 271 -7 301 -32 69 -38 78 -49 82 -7 2 -13 -3 -13 -11 0 -17 -43 -18 -58
-2 -4 4 -1 5 6 1 7 -5 12 -1 12 9 0 11 -5 15 -14 12 -10 -4 -13 -1 -10 7 3 7
-2 21 -11 30 -15 15 -15 16 2 17 15 0 14 2 -4 9 -13 5 -23 12 -23 15 0 4 5 3
10 0 6 -3 13 1 17 10 3 10 0 20 -6 25 -7 4 -12 13 -11 21 4 28 0 49 -11 49 -5
0 -7 -5 -4 -10 3 -6 1 -10 -5 -10 -6 0 -9 12 -6 28 2 15 5 30 5 35 1 4 8 7 17
7 8 0 12 5 9 10 -3 6 1 10 10 10 9 0 13 5 10 10 -3 6 -1 11 4 11 19 2 25 5 64
24 28 14 40 28 47 56 9 32 14 37 37 36 25 -2 27 3 63 118 20 66 56 165 80 219
56 130 98 302 160 660 65 372 89 498 93 503 2 2 94 -1 203 -7 109 -5 333 -10
497 -10 l297 0 0 624 0 624 -29 7 c-15 3 -37 14 -48 24 -25 24 -83 55 -105 57
-9 1 -25 5 -35 9 -34 14 -220 2 -237 -16 -12 -11 -29 -12 -23 -1 4 5 -477 8
-553 3 -30 -2 -439 19 -560 28 -113 9 -618 12 -715 4z m115 -992 c0 -2 -11
-16 -25 -33 -50 -59 -56 -157 -14 -224 33 -54 80 -66 282 -72 l177 -5 0 37 c0
41 11 67 41 97 25 25 45 24 53 -3 5 -19 8 -20 15 -8 8 11 12 8 22 -15 7 -17
13 -36 15 -43 1 -8 9 -21 17 -30 9 -10 19 -35 22 -57 4 -22 10 -44 14 -50 3
-5 7 -26 8 -45 4 -54 9 -79 16 -86 3 -4 2 -15 -4 -25 -5 -11 -6 -19 -2 -19 4
0 6 -49 3 -110 -3 -61 -1 -110 4 -110 5 0 4 -6 -2 -12 -5 -7 -9 -32 -8 -55 1
-24 -1 -43 -4 -43 -3 0 -6 -26 -8 -58 -3 -59 -30 -241 -37 -252 -3 -4 -7 -26
-10 -50 -3 -23 -12 -72 -21 -109 -8 -36 -15 -102 -15 -146 0 -44 -5 -102 -10
-130 -15 -83 -17 -99 -18 -119 -1 -16 -7 -18 -46 -13 -25 4 -56 9 -70 13 -14
3 -25 2 -25 -3 0 -5 31 -17 69 -26 71 -19 102 -41 102 -73 1 -11 -3 -55 -7
-99 -4 -44 -8 -90 -8 -102 -1 -13 -5 -23 -9 -23 -5 0 -6 -3 -4 -8 3 -4 -5 -27
-16 -52 -27 -55 -57 -63 -96 -27 -78 74 -192 77 -255 8 -11 -12 -25 -21 -31
-21 -7 0 -17 -6 -23 -12 -8 -10 10 -13 86 -13 83 0 104 -4 142 -24 64 -34 120
-82 120 -102 0 -31 -24 -27 -76 12 -68 52 -122 69 -208 68 -67 -1 -69 -2 -31
-11 108 -25 131 -34 181 -71 29 -22 56 -49 60 -60 12 -39 -12 -37 -76 8 -75
53 -113 65 -195 64 -78 -1 -122 -17 -49 -18 75 -1 146 -26 203 -71 56 -45 74
-70 61 -89 -6 -10 -24 -2 -74 34 -77 54 -136 75 -215 75 -67 -1 -51 -15 26
-23 63 -7 119 -35 173 -85 67 -65 49 -105 -21 -46 -69 58 -116 77 -200 82 -88
5 -140 -8 -168 -44 -27 -34 -34 -30 -17 11 8 19 42 60 75 90 l59 56 -28 81
c-31 88 -42 101 -81 92 -26 -5 -27 -3 -38 58 -7 35 -15 127 -18 205 l-6 142
25 10 c23 9 26 17 37 103 6 51 23 154 38 228 24 127 25 147 20 335 -9 321 -59
896 -91 1053 -7 34 -10 65 -7 68 6 6 201 2 201 -5z"/>
<path d="M6030 3024 c0 -36 30 -43 177 -44 154 0 193 8 193 40 0 19 -6 20
-185 20 -165 0 -185 -2 -185 -16z"/>
<path d="M4820 1405 c0 -8 4 -15 10 -15 5 0 7 7 4 15 -4 8 -8 15 -10 15 -2 0
-4 -7 -4 -15z"/>
<path d="M2380 818 c-159 -13 -1189 -95 -1490 -118 -146 -11 -272 -22 -280
-24 -58 -14 226 -1 605 29 248 19 558 39 690 45 132 6 254 15 270 20 17 5 118
16 225 25 226 19 301 33 170 33 -47 -1 -132 -5 -190 -10z"/>
<path d="M6268 773 c7 -3 16 -2 19 1 4 3 -2 6 -13 5 -11 0 -14 -3 -6 -6z"/>
<path d="M7628 771 c12 -7 62 -4 62 5 0 2 -17 4 -37 4 -24 0 -33 -3 -25 -9z"/>
<path d="M5010 751 c0 -8 96 -11 303 -12 324 0 361 -10 110 -29 -81 -6 -152
-13 -158 -16 -21 -9 312 5 343 15 18 5 83 13 143 17 80 5 107 10 99 18 -15 15
-840 22 -840 7z"/>
<path d="M5033 683 c15 -2 37 -2 50 0 12 2 0 4 -28 4 -27 0 -38 -2 -22 -4z"/>
<path d="M3700 630 l-65 -7 85 -1 c47 0 94 3 105 8 24 10 -23 10 -125 0z"/>
<path d="M4993 625 c-6 -9 -36 -18 -83 -24 -123 -17 -423 -41 -610 -51 l-175
-9 230 5 c321 7 1145 60 1145 74 0 14 -95 20 -296 20 -169 0 -204 -2 -211 -15z"/>
<path d="M7505 574 c-11 -2 -402 -35 -870 -74 -467 -39 -877 -75 -910 -80
-125 -19 284 1 635 31 195 17 454 37 575 44 121 8 243 18 271 24 29 5 128 17
220 26 167 17 250 35 149 33 -27 0 -59 -2 -70 -4z"/>
</g>
</svg>
