<svg width="30" height="27" viewBox="0 0 30 27" fill="none" xmlns="http://www.w3.org/2000/svg">
<path d="M4.728 26.32C3.32 26.32 2.232 25.8187 1.464 24.816C0.717333 23.8133 0.344 22.2773 0.344 20.208V13.424C0.344 12.2293 0.493333 11.1627 0.792 10.224C1.112 9.28533 1.592 8.54933 2.232 8.016C2.872 7.46133 3.69333 7.184 4.696 7.184C5.35733 7.184 5.98667 7.32267 6.584 7.6C7.18133 7.87733 7.72533 8.22933 8.216 8.656V0.079998H13.048V26H8.216V24.624C7.68267 25.136 7.11733 25.552 6.52 25.872C5.944 26.1707 5.34667 26.32 4.728 26.32ZM6.68 23.12C6.89333 23.12 7.128 23.0773 7.384 22.992C7.66133 22.8853 7.93867 22.7467 8.216 22.576V10.8C7.98133 10.672 7.736 10.5653 7.48 10.48C7.224 10.3733 6.968 10.32 6.712 10.32C6.15733 10.32 5.76267 10.5547 5.528 11.024C5.31467 11.4933 5.208 12.0587 5.208 12.72V20.528C5.208 21.0187 5.25067 21.4667 5.336 21.872C5.42133 22.256 5.57067 22.5653 5.784 22.8C5.99733 23.0133 6.296 23.12 6.68 23.12ZM24.9915 26.32C24.3088 26.32 23.6475 26.16 23.0075 25.84C22.3675 25.52 21.7595 25.104 21.1835 24.592V26H16.3515V0.079998H21.1835V8.88C21.7808 8.34667 22.4102 7.93067 23.0715 7.632C23.7328 7.33333 24.4155 7.184 25.1195 7.184C25.8662 7.184 26.4955 7.35467 27.0075 7.696C27.5195 8.016 27.9355 8.45333 28.2555 9.008C28.5755 9.56267 28.7995 10.1813 28.9275 10.864C29.0555 11.5467 29.1195 12.24 29.1195 12.944V20.176C29.1195 21.3707 28.9702 22.4267 28.6715 23.344C28.3728 24.2613 27.9142 24.9867 27.2955 25.52C26.6982 26.0533 25.9302 26.32 24.9915 26.32ZM22.8475 23.088C23.2315 23.088 23.5302 22.9707 23.7435 22.736C23.9568 22.48 24.0955 22.1493 24.1595 21.744C24.2448 21.3387 24.2875 20.8907 24.2875 20.4V12.656C24.2875 12.208 24.2448 11.8027 24.1595 11.44C24.0742 11.0773 23.9248 10.7893 23.7115 10.576C23.5195 10.3413 23.2315 10.224 22.8475 10.224C22.5488 10.224 22.2608 10.2987 21.9835 10.448C21.7062 10.576 21.4395 10.736 21.1835 10.928V22.512C21.4395 22.6827 21.7062 22.8213 21.9835 22.928C22.2608 23.0347 22.5488 23.088 22.8475 23.088Z" fill="#EBF0FF" fill-opacity="0.6"/>
</svg>
