<?xml version="1.0" standalone="no"?>
<!DOCTYPE svg PUBLIC "-//W3C//DTD SVG 20010904//EN"
 "http://www.w3.org/TR/2001/REC-SVG-20010904/DTD/svg10.dtd">
<svg version="1.0" xmlns="http://www.w3.org/2000/svg"
 width="69.000000pt" height="37.000000pt" viewBox="0 0 69.000000 37.000000"
 preserveAspectRatio="xMidYMid meet">

<g transform="translate(0.000000,37.000000) scale(0.100000,-0.100000)"
fill="#000000" stroke="none">
<path d="M210 299 l0 -71 -25 16 c-30 20 -87 21 -124 1 -59 -30 -78 -126 -38
-186 40 -60 111 -77 161 -38 21 17 26 18 26 5 0 -10 9 -16 25 -16 l25 0 0 180
0 180 -25 0 c-24 0 -25 -2 -25 -71z m-50 -89 c20 0 50 -45 50 -76 0 -65 -63
-104 -120 -74 -36 19 -45 92 -16 129 14 17 47 31 64 25 8 -2 18 -4 22 -4z"/>
<path d="M320 190 c0 -174 1 -180 20 -180 11 0 23 7 27 15 5 14 7 14 23 0 25
-22 89 -29 120 -13 13 7 35 29 48 48 19 29 23 44 19 84 -4 41 -11 55 -41 83
-44 41 -108 46 -144 13 l-22 -21 0 76 c0 73 -1 75 -25 75 l-25 0 0 -180z m181
4 c35 -31 27 -113 -11 -134 -57 -30 -120 9 -120 74 0 72 78 107 131 60z"/>
<path d="M617 64 c-13 -14 -7 -43 12 -53 27 -15 60 11 45 36 -12 19 -45 29
-57 17z"/>
</g>
</svg>
