<svg width="27" height="26" viewBox="0 0 27 26" fill="none" xmlns="http://www.w3.org/2000/svg">
<path d="M4.45977 25.27C3.07977 25.27 2.02977 24.78 1.30977 23.8C0.609766 22.82 0.259766 21.25 0.259766 19.09V13.78C0.259766 12.58 0.389766 11.5 0.649766 10.54C0.929766 9.58001 1.36977 8.82001 1.96977 8.26001C2.56977 7.68001 3.37977 7.39001 4.39977 7.39001C5.01977 7.39001 5.58977 7.52001 6.10977 7.78001C6.64977 8.02001 7.13977 8.34001 7.57977 8.74001V0.700012H11.6598V25H7.57977V23.77C7.11977 24.23 6.62977 24.6 6.10977 24.88C5.58977 25.14 5.03977 25.27 4.45977 25.27ZM5.95977 22.45C6.17977 22.45 6.42977 22.4 6.70977 22.3C6.98977 22.2 7.27977 22.06 7.57977 21.88V10.75C7.33977 10.59 7.07977 10.46 6.79977 10.36C6.51977 10.24 6.22977 10.18 5.92977 10.18C5.34977 10.18 4.93977 10.45 4.69977 10.99C4.47977 11.51 4.36977 12.15 4.36977 12.91V19.39C4.36977 19.97 4.40977 20.49 4.48977 20.95C4.56977 21.41 4.71977 21.78 4.93977 22.06C5.17977 22.32 5.51977 22.45 5.95977 22.45Z" fill="black"/>
<path d="M22.2095 25.27C21.5695 25.27 20.9695 25.12 20.4095 24.82C19.8495 24.52 19.3295 24.15 18.8495 23.71V25H14.7695V0.700012H18.8495V8.98001C19.3495 8.50001 19.8895 8.12001 20.4695 7.84001C21.0695 7.54001 21.7095 7.39001 22.3895 7.39001C23.1695 7.39001 23.8095 7.57001 24.3095 7.93001C24.8095 8.29001 25.1995 8.77001 25.4795 9.37001C25.7595 9.95001 25.9495 10.58 26.0495 11.26C26.1695 11.92 26.2295 12.56 26.2295 13.18V19.06C26.2295 20.2 26.0895 21.24 25.8095 22.18C25.5495 23.12 25.1195 23.87 24.5195 24.43C23.9395 24.99 23.1695 25.27 22.2095 25.27ZM20.6495 22.42C21.0895 22.42 21.4095 22.28 21.6095 22C21.8295 21.7 21.9695 21.31 22.0295 20.83C22.1095 20.33 22.1495 19.79 22.1495 19.21V13C22.1495 12.46 22.1095 11.98 22.0295 11.56C21.9495 11.12 21.7995 10.77 21.5795 10.51C21.3795 10.25 21.0595 10.12 20.6195 10.12C20.2995 10.12 19.9895 10.2 19.6895 10.36C19.3895 10.5 19.1095 10.66 18.8495 10.84V21.79C19.1095 21.97 19.3895 22.12 19.6895 22.24C20.0095 22.36 20.3295 22.42 20.6495 22.42Z" fill="black"/>
</svg>
